Coordinates
version=1
nRows=5
nColumns=40
inDegrees=yes

Units are S.I. units (second, meters, Newtons, ...)
If the header above contains a line with 'inDegrees', this indicates whether rotational values are in degrees (yes) or radians (no).

endheader
time	pelvis_tilt	pelvis_list	pelvis_rotation	pelvis_tx	pelvis_ty	pelvis_tz	hip_flexion_r	hip_adduction_r	hip_rotation_r	knee_angle_r	knee_angle_r_beta	ankle_angle_r	subtalar_angle_r	mtp_angle_r	hip_flexion_l	hip_adduction_l	hip_rotation_l	knee_angle_l	knee_angle_l_beta	ankle_angle_l	subtalar_angle_l	mtp_angle_l	lumbar_extension	lumbar_bending	lumbar_rotation	arm_flex_r	arm_add_r	arm_rot_r	elbow_flex_r	pro_sup_r	wrist_flex_r	wrist_dev_r	arm_flex_l	arm_add_l	arm_rot_l	elbow_flex_l	pro_sup_l	wrist_flex_l	wrist_dev_l
      6.08000000000000007105	     29.13852765828925228675	      5.28801888411704545945	   -177.70161170255883575919	      0.30677756367755337763	      0.84810703407682908050	     -0.61358489373996660809	     44.42090945828778103532	     -4.02196578152483663615	    -18.91147291426603160858	     16.11252457255535119884	      0.28121660459958286449	      2.87008763335903394065	      0.00000000000000000000	      0.00000000000000000000	     48.27247354324935457726	     -9.59301862705624763805	     -2.03043378335368451815	     19.13146132740600435795	      0.33390699088119962790	      1.77812926379337277183	      0.00000000000000000000	      0.00000000000000000000	     14.96976164953816912373	      9.40679642243062374973	     -4.31964391050071050415	     21.77277324422714954721	    -11.84043622571962472989	     49.95725647375233080538	      2.47094920627325098650	     86.87707275759944991478	      0.00000000000000000000	      0.00000000000000000000	     10.84756854911381651618	     -6.39717082887120103152	     64.45876704064173168263	      0.93206289611945203344	      4.21740604649951844607	      0.00000000000000000000	      0.00000000000000000000
      6.08499999999999996447	     29.30405875036501583963	      5.40785249645020371645	   -177.75467395737587139593	      0.30555706065638554847	      0.84788755140439853175	     -0.61343185774601538540	     44.39555959814970975685	     -3.86586429946296306071	    -18.95964605183925755227	     15.89217363726799447932	      0.27737075526896953770	      2.89815849513358436695	      0.00000000000000000000	      0.00000000000000000000	     48.39188458816310856037	     -9.72748904979262540849	     -2.07799536621631064648	     19.19998937744018974172	      0.33510303098426758028	      1.94990019333558239900	      0.00000000000000000000	      0.00000000000000000000	     15.51814524196310962623	      9.52343213526507348377	     -4.66522460837489827412	     21.61631004486231333317	    -11.78819858219754657114	     49.47949641573141832396	      2.55354925150568767833	     86.94622640199770557956	      0.00000000000000000000	      0.00000000000000000000	     10.62894365219253067778	     -6.22097155453987671336	     61.83332470218836363074	      0.94366269442036132542	      4.76330840747330430673	      0.00000000000000000000	      0.00000000000000000000
      6.08999999999999985789	     29.61086895552097075779	      5.47421783791793092888	   -177.72275072323355971093	      0.30470593509650800712	      0.84745921640949695153	     -0.61312874013568985365	     44.59830605640753020680	     -3.86715168551904353578	    -19.08136628560216507822	     15.82608181433637817292	      0.27621723535016773354	      2.93946149605154349871	      0.00000000000000000000	      0.00000000000000000000	     48.63523461120260549251	     -9.70524132374463022188	     -1.99179622078230744719	     19.14060366315850814090	      0.33406655474140362072	      2.01776786522138573687	      0.00000000000000000000	      0.00000000000000000000	     16.21195788144596861002	      9.54657248079634968008	     -4.93976685732615994340	     21.40289658930788974089	    -11.80134273007646861231	     48.50976213942357162523	      2.63674369575781630815	     86.98434711587238155062	      0.00000000000000000000	      0.00000000000000000000	     10.40074031010033017708	     -6.12009488594440487219	     60.64642275809138283194	      0.96839556038153795647	      4.36078601541462962388	      0.00000000000000000000	      0.00000000000000000000
      6.09499999999999975131	     29.67003909171491216057	      5.67373283091924829336	   -177.77235632014594557404	      0.30346456754213085860	      0.84740540994889279602	     -0.61318845386068676628	     44.43834418825061760572	     -3.63131770864788228081	    -19.26157728297544835527	     15.57352153807845596134	      0.27180922696972054098	      2.91473628773121795632	      0.00000000000000000000	      0.00000000000000000000	     48.68708022589682116177	     -9.92956227267458757524	     -2.02805549148712049856	     19.25304467620863491106	      0.33602902063340628347	      2.20977140089246582022	      0.00000000000000000000	      0.00000000000000000000	     16.62123832626926045464	      9.73890006422922560603	     -5.27045216513470737851	     21.28703949231454828350	    -11.73480430541132513156	     48.05834936820093616916	      2.68839889354675287692	     87.06681784361283860108	      0.00000000000000000000	      0.00000000000000000000	     10.25576475192010050819	     -5.96282260236859329439	     58.03149554354720152105	      0.99017006881901070692	      4.62543560780103746310	      0.00000000000000000000	      0.00000000000000000000
      6.09999999999999964473	     30.02835690646153210537	      5.75248647981625094161	   -177.84908101608820629735	      0.30290143780319905842	      0.84690956276995277285	     -0.61318956181765738034	     44.74039358741366356753	     -3.54140314062781813575	    -19.27087727380436632529	     15.51946518634642480094	      0.27086576565038045228	      2.86698695751663601428	      0.00000000000000000000	      0.00000000000000000000	     49.03876673967614152616	    -10.00570348772572337737	     -1.93210253933478059984	     19.29342953907342916864	      0.33673386945836331074	      2.20069868157445958090	      0.00000000000000000000	      0.00000000000000000000	     17.31133113468125017675	      9.78892070911318512572	     -5.41948112822884464634	     21.09528769109980572694	    -11.72159906624919045726	     47.39250689962091911411	      2.74407468787252817322	     87.01439449738155929026	      0.00000000000000000000	      0.00000000000000000000	     10.02901689097579662757	     -5.92443847521846311821	     57.10313488029394335399	      1.02814877384357261647	      4.55571641435423213551	      0.00000000000000000000	      0.00000000000000000000
